<svg width="25" height="24" viewBox="0 0 25 24" fill="none" xmlns="http://www.w3.org/2000/svg">
<path d="M22.5 11V9C22.5 4 20.5 2 15.5 2H9.5C4.5 2 2.5 4 2.5 9V15C2.5 20 4.5 22 9.5 22H10.5" stroke="#CCCCCC" stroke-width="2" stroke-linecap="round" stroke-linejoin="round"/>
<path d="M2.53027 8.5H22.5002" stroke="#CCCCCC" stroke-width="2" stroke-linecap="round" stroke-linejoin="round"/>
<path d="M2.53027 15.5H12.5002" stroke="#CCCCCC" stroke-width="2" stroke-linecap="round" stroke-linejoin="round"/>
<path d="M9.00977 21.99V2.01001" stroke="#CCCCCC" stroke-width="2" stroke-linecap="round" stroke-linejoin="round"/>
<path d="M16.0098 11.99V2.01001" stroke="#CCCCCC" stroke-width="2" stroke-linecap="round" stroke-linejoin="round"/>
<path d="M19.2299 14.6701L15.0799 18.82C14.9199 18.98 14.7699 19.29 14.7299 19.51L14.4999 21.1C14.4199 21.67 14.8199 22.08 15.3899 21.99L16.9799 21.76C17.1999 21.73 17.5099 21.5701 17.6699 21.4101L21.8199 17.26C22.5299 16.55 22.8699 15.7101 21.8199 14.6601C20.7799 13.6201 19.9499 13.9501 19.2299 14.6701Z" stroke="#CCCCCC" stroke-width="2" stroke-miterlimit="10" stroke-linecap="round" stroke-linejoin="round"/>
<path d="M18.6401 15.26C18.9901 16.52 19.9801 17.5 21.2401 17.86" stroke="#CCCCCC" stroke-width="2" stroke-miterlimit="10" stroke-linecap="round" stroke-linejoin="round"/>
</svg>
